<?xml version="1.0" standalone="no"?>
<!DOCTYPE svg PUBLIC "-//W3C//DTD SVG 20010904//EN"
 "http://www.w3.org/TR/2001/REC-SVG-20010904/DTD/svg10.dtd">
<svg version="1.0" xmlns="http://www.w3.org/2000/svg"
 width="470.000000pt" height="470.000000pt" viewBox="0 0 470.000000 470.000000"
 preserveAspectRatio="xMidYMid meet">
<metadata>
Created by potrace 1.11, written by Peter Selinger 2001-2013
</metadata>
<g transform="translate(0.000000,470.000000) scale(0.100000,-0.100000)"
fill="#000000" stroke="none">
<path d="M1350 4693 c-169 -26 -225 -38 -302 -64 -92 -30 -241 -94 -268 -114
-8 -6 -32 -20 -53 -30 -108 -56 -298 -223 -405 -358 -148 -186 -263 -441 -297
-658 -3 -19 -10 -59 -15 -89 -5 -31 -9 -491 -9 -1035 0 -915 2 -987 19 -1085
59 -328 193 -591 417 -817 78 -77 248 -210 312 -242 20 -10 68 -35 108 -55 63
-31 199 -83 243 -91 8 -2 33 -8 55 -14 51 -13 93 -20 180 -31 79 -10 2038 -8
2071 2 12 4 39 9 60 12 384 61 772 319 990 658 85 132 180 348 201 458 44 227
42 169 42 1195 0 595 -4 1001 -11 1050 -14 117 -61 291 -104 392 -199 465
-591 786 -1091 895 -96 21 -118 22 -1108 24 -555 1 -1021 0 -1035 -3z"/>
</g>
</svg>
